<?xml version="1.0" encoding="utf-8"?>
<!-- Generator: Adobe Illustrator 23.0.0, SVG Export Plug-In . SVG Version: 6.00 Build 0)  -->
<svg version="1.1" id="Layer_1" xmlns="http://www.w3.org/2000/svg" xmlns:xlink="http://www.w3.org/1999/xlink" x="0px" y="0px"
	 viewBox="0 0 426 106" style="enable-background:new 0 0 426 106;" xml:space="preserve">
<style type="text/css">
	.st0{fill:#00BDFD;}
	.st1{fill:#FF006D;}
	.st2{fill:#00ACEE;}
</style>
<g>
	<path class="st0" d="M119.57,46.4v3.33h-6.75v3.38h7.73v3.33h-12.02v-16.2h11.73v3.33h-7.43v2.84H119.57z"/>
	<path class="st0" d="M128.7,40.23l3.35,11.27l3.3-11.27h5.76v16.2h-3.89V45.67l-3.33,10.76h-3.86l-3.28-10.76v10.76h-3.89v-16.2
		H128.7z"/>
	<path class="st0" d="M157.52,41.78c1.72,1.48,2.67,3.77,2.67,6.53c0,2.79-0.92,5.05-2.67,6.56c-1.43,1.24-3.4,1.92-5.51,1.92
		c-2.14,0-4.08-0.68-5.54-1.92c-1.8-1.55-2.67-3.74-2.67-6.68c0-2.65,1-4.98,2.67-6.41c1.51-1.26,3.43-1.92,5.54-1.92
		S156.03,40.52,157.52,41.78z M148.24,48.27c0,3.28,1.38,5.2,3.77,5.2c2.33,0,3.74-1.92,3.74-5.13c0-3.23-1.41-5.15-3.77-5.15
		C149.67,43.19,148.24,45.11,148.24,48.27z"/>
	<path class="st0" d="M174.21,40.23v3.33h-4.49v12.88h-4.3V43.55h-4.49v-3.33H174.21z"/>
	<path class="st0" d="M176.15,56.43v-16.2h4.3v16.2H176.15z"/>
	<path class="st0" d="M196.83,41.78c1.73,1.48,2.67,3.77,2.67,6.53c0,2.79-0.92,5.05-2.67,6.56c-1.43,1.24-3.4,1.92-5.51,1.92
		c-2.14,0-4.08-0.68-5.54-1.92c-1.8-1.55-2.67-3.74-2.67-6.68c0-2.65,1-4.98,2.67-6.41c1.51-1.26,3.43-1.92,5.54-1.92
		C193.42,39.86,195.34,40.52,196.83,41.78z M187.55,48.27c0,3.28,1.38,5.2,3.77,5.2c2.33,0,3.74-1.92,3.74-5.13
		c0-3.23-1.41-5.15-3.77-5.15C188.98,43.19,187.55,45.11,187.55,48.27z"/>
	<path class="st0" d="M206.57,40.23l6.02,10.03V40.23h4.13v16.2h-4.2l-6.22-10.15v10.15h-4.13v-16.2H206.57z"/>
	<path class="st0" d="M228.6,40.23l6.07,16.2h-4.47l-1.04-3.21h-5.2l-1.07,3.21h-4.45l6.05-16.2H228.6z M226.56,44.5l-1.55,5.49
		h3.09L226.56,44.5z"/>
	<path class="st0" d="M240.85,40.23V53.1h7.38v3.33h-11.68v-16.2H240.85z"/>
	<path class="st1" d="M258.61,45.23c-0.02-1.51-0.68-2.11-2.23-2.11c-1.26,0-1.97,0.46-1.97,1.26c0,0.39,0.17,0.66,0.51,0.87
		c0.39,0.22,0.39,0.22,2.58,1.14c2.21,0.95,2.84,1.26,3.67,1.94c1.04,0.85,1.6,2.02,1.6,3.43c0,3.08-2.55,5.03-6.63,5.03
		c-3.16,0-5.3-1.04-6.27-3.06c-0.41-0.87-0.51-1.36-0.51-2.87h3.96c0.17,1.9,1.02,2.67,2.89,2.67c1.36,0,2.19-0.49,2.19-1.34
		c0-0.49-0.24-0.85-0.8-1.14c-0.41-0.24-0.41-0.24-2.72-1.24c-3.5-1.51-4.76-2.82-4.76-5c0-3.04,2.45-4.96,6.32-4.96
		c2.92,0,4.91,0.95,5.68,2.65c0.36,0.78,0.46,1.36,0.46,2.72H258.61z"/>
	<path class="st1" d="M279.48,40.23v9.18c0,2.84-0.24,3.86-1.19,5.03c-1.26,1.55-3.33,2.36-5.98,2.36c-2.92,0-5.13-0.97-6.32-2.77
		c-0.7-1.09-0.88-2.04-0.88-4.62v-9.18h4.3v9.33c0,1.53,0.05,1.99,0.27,2.5c0.39,0.87,1.36,1.41,2.62,1.41
		c1.36,0,2.36-0.61,2.7-1.65c0.12-0.44,0.17-0.92,0.17-2.26v-9.33H279.48z"/>
	<path class="st1" d="M287.69,40.23c3.26,0,4.47,0.15,5.61,0.66c1.75,0.8,2.75,2.45,2.75,4.62c0,2.33-1.12,3.98-3.18,4.71
		c-1.07,0.36-1.97,0.46-4.59,0.46h-0.92v5.76h-4.3v-16.2H287.69z M288.3,47.44c1.41,0,1.92-0.05,2.4-0.27
		c0.63-0.29,0.97-0.87,0.97-1.7c0-0.92-0.39-1.53-1.14-1.8c-0.44-0.15-0.85-0.19-2.11-0.19h-1.07v3.96H288.3z"/>
	<path class="st1" d="M302.7,40.23c3.25,0,4.47,0.15,5.61,0.66c1.75,0.8,2.75,2.45,2.75,4.62c0,2.33-1.12,3.98-3.18,4.71
		c-1.07,0.36-1.97,0.46-4.59,0.46h-0.92v5.76h-4.3v-16.2H302.7z M303.31,47.44c1.41,0,1.92-0.05,2.4-0.27
		c0.63-0.29,0.97-0.87,0.97-1.7c0-0.92-0.39-1.53-1.14-1.8c-0.44-0.15-0.85-0.19-2.11-0.19h-1.07v3.96H303.31z"/>
	<path class="st1" d="M325.73,41.78c1.73,1.48,2.67,3.77,2.67,6.53c0,2.79-0.92,5.05-2.67,6.56c-1.43,1.24-3.4,1.92-5.51,1.92
		c-2.14,0-4.08-0.68-5.54-1.92c-1.8-1.55-2.67-3.74-2.67-6.68c0-2.65,1-4.98,2.67-6.41c1.51-1.26,3.43-1.92,5.54-1.92
		C322.33,39.86,324.25,40.52,325.73,41.78z M316.46,48.27c0,3.28,1.38,5.2,3.77,5.2c2.33,0,3.74-1.92,3.74-5.13
		c0-3.23-1.41-5.15-3.77-5.15C317.89,43.19,316.46,45.11,316.46,48.27z"/>
	<path class="st1" d="M335.99,40.23c3.21,0,4.71,0.27,5.93,1.07c1.43,0.92,2.19,2.36,2.19,4.15c0,2.14-0.97,3.55-3.01,4.4l3.98,6.58
		h-4.96l-3.26-5.88h-1.48v5.88h-4.3v-16.2H335.99z M336.52,47.32c2.36,0,3.21-0.53,3.21-1.99c0-0.8-0.36-1.38-1.02-1.65
		c-0.39-0.17-0.85-0.22-2.02-0.22h-1.31v3.86H336.52z"/>
	<path class="st1" d="M358.61,40.23v3.33h-4.49v12.88h-4.3V43.55h-4.49v-3.33H358.61z"/>
	<path class="st1" d="M374.91,40.23l6.07,16.2h-4.47l-1.04-3.21h-5.2l-1.07,3.21h-4.45l6.05-16.2H374.91z M372.87,44.5l-1.55,5.49
		h3.08L372.87,44.5z"/>
	<path class="st1" d="M382.85,56.43v-16.2h4.3v16.2H382.85z"/>
</g>
<g>
	<path class="st2" d="M163.9,63.2l3.33,9.71h-1.13l-0.85-2.56h-3.63l-0.87,2.56h-1.11l3.33-9.71H163.9z M163.42,64.6l-1.52,4.8h3.04
		L163.42,64.6z"/>
	<path class="st2" d="M169.45,66.05c0.09,0.35,0.13,0.71,0.13,1.06l-0.01,0.42c0.48-1.14,1.03-1.66,1.76-1.66
		c0.26,0,0.54,0.07,0.82,0.22v1.01c-0.46-0.22-0.65-0.27-0.91-0.27c-0.54,0-1.01,0.39-1.32,1.06c-0.22,0.48-0.3,1.06-0.3,1.97v3.07
		h-1.03v-4.5c0-1.58-0.01-1.69-0.12-2.36H169.45z"/>
	<path class="st2" d="M176.74,66.05v0.82h-1.63l-0.07,3.47v0.71c0,0.87,0.16,1.11,0.77,1.11c0.3,0,0.68-0.09,0.98-0.25v0.9
		c-0.46,0.17-0.8,0.23-1.21,0.23c-0.67,0-1.17-0.22-1.4-0.62c-0.14-0.23-0.19-0.49-0.19-1c0-0.13,0-0.36,0.01-0.58
		c0.01-0.29,0.01-0.48,0.01-0.54l0.09-3.44h-1.03v-0.82h1.06l0.04-1.98h0.98l-0.03,1.98H176.74z"/>
	<path class="st2" d="M179.53,63.88c0,0.42-0.3,0.72-0.74,0.72c-0.42,0-0.74-0.3-0.74-0.72c0-0.43,0.32-0.75,0.75-0.75
		C179.23,63.13,179.53,63.45,179.53,63.88z M179.33,66.05v6.86h-1.07v-6.86H179.33z"/>
	<path class="st2" d="M184.34,66.05v0.82h-1.66v6.03h-1.07v-6.03h-0.97v-0.82h0.97v-0.43c0-1.03,0.06-1.37,0.29-1.76
		c0.29-0.51,0.87-0.8,1.53-0.8c0.35,0,0.68,0.07,1.08,0.22v0.94c-0.36-0.19-0.65-0.26-0.95-0.26c-0.4,0-0.69,0.2-0.82,0.56
		c-0.07,0.2-0.1,0.54-0.1,1.07v0.46H184.34z"/>
	<path class="st2" d="M187.07,63.88c0,0.42-0.3,0.72-0.74,0.72c-0.42,0-0.74-0.3-0.74-0.72c0-0.43,0.32-0.75,0.75-0.75
		C186.77,63.13,187.07,63.45,187.07,63.88z M186.87,66.05v6.86h-1.07v-6.86H186.87z"/>
	<path class="st2" d="M192.96,68.28c-0.19-1.11-0.61-1.55-1.49-1.55c-1.14,0-1.84,1.04-1.84,2.75s0.69,2.73,1.87,2.73
		c0.93,0,1.39-0.52,1.5-1.66h1.01c-0.13,1.65-1.01,2.53-2.52,2.53c-1.76,0-2.91-1.42-2.91-3.59c0-2.23,1.13-3.63,2.91-3.63
		c1.45,0,2.31,0.85,2.46,2.42H192.96z"/>
	<path class="st2" d="M196.99,63.88c0,0.42-0.3,0.72-0.74,0.72c-0.42,0-0.74-0.3-0.74-0.72c0-0.43,0.32-0.75,0.75-0.75
		C196.69,63.13,196.99,63.45,196.99,63.88z M196.79,66.05v6.86h-1.07v-6.86H196.79z"/>
	<path class="st2" d="M198.77,67.85c0.15-1.29,1.04-1.98,2.56-1.98c1.11,0,1.94,0.42,2.2,1.13c0.13,0.35,0.16,0.68,0.16,1.53v2.57
		c0,1.11,0.03,1.33,0.19,1.81h-0.97c-0.1-0.32-0.12-0.48-0.16-0.93c-0.4,0.74-1.07,1.1-2.01,1.1c-1.35,0-2.21-0.78-2.21-1.98
		c0-0.95,0.55-1.66,1.59-2.05c0.67-0.25,1.3-0.39,2.58-0.61v-0.29c0-1.03-0.39-1.42-1.4-1.42c-0.88,0-1.37,0.35-1.52,1.11H198.77z
		 M202.69,69.19c-2.31,0.41-3.12,0.9-3.12,1.84c0,0.71,0.54,1.2,1.33,1.2c0.65,0,1.22-0.3,1.52-0.81c0.19-0.33,0.27-0.81,0.27-1.55
		V69.19z"/>
	<path class="st2" d="M206.87,63.22v9.69h-1.07v-9.69H206.87z"/>
	<path class="st2" d="M213.88,63.88c0,0.42-0.3,0.72-0.74,0.72c-0.42,0-0.74-0.3-0.74-0.72c0-0.43,0.32-0.75,0.75-0.75
		C213.58,63.13,213.88,63.45,213.88,63.88z M213.68,66.05v6.86h-1.07v-6.86H213.68z"/>
	<path class="st2" d="M216.6,66.05c0.1,0.29,0.14,0.56,0.14,1c0.46-0.8,1.16-1.19,2.07-1.19c0.94,0,1.66,0.42,1.97,1.11
		c0.19,0.45,0.22,0.64,0.22,2v3.93h-1.01v-3.88c0-1.01-0.03-1.26-0.17-1.59c-0.2-0.43-0.62-0.68-1.2-0.68
		c-0.61,0-1.16,0.3-1.48,0.81c-0.23,0.36-0.33,0.84-0.33,1.5v3.83h-1.01v-4.53c0-1.63,0-1.69-0.16-2.33H216.6z"/>
	<path class="st2" d="M226.12,66.05v0.82h-1.63l-0.07,3.47v0.71c0,0.87,0.16,1.11,0.77,1.11c0.3,0,0.68-0.09,0.98-0.25v0.9
		c-0.46,0.17-0.8,0.23-1.21,0.23c-0.67,0-1.17-0.22-1.4-0.62c-0.14-0.23-0.19-0.49-0.19-1c0-0.13,0-0.36,0.01-0.58
		c0.01-0.29,0.01-0.48,0.01-0.54l0.09-3.44h-1.03v-0.82h1.06l0.04-1.98h0.98l-0.03,1.98H226.12z"/>
	<path class="st2" d="M228.07,69.65c0.04,1.66,0.74,2.56,1.98,2.56c0.75,0,1.2-0.29,1.59-1.04l0.94,0.12
		c-0.42,1.19-1.29,1.79-2.55,1.79c-1.84,0-3.01-1.37-3.01-3.53c0-2.23,1.16-3.69,2.95-3.69c1.69,0,2.78,1.37,2.78,3.5
		c0,0.04,0,0.16-0.01,0.29H228.07z M231.7,68.86c-0.12-1.39-0.74-2.14-1.76-2.14c-1,0-1.63,0.74-1.84,2.14H231.7z"/>
	<path class="st2" d="M235.53,63.22v9.69h-1.07v-9.69H235.53z"/>
	<path class="st2" d="M238.93,63.88c0,0.42-0.3,0.72-0.74,0.72c-0.42,0-0.74-0.3-0.74-0.72c0-0.43,0.32-0.75,0.75-0.75
		C238.63,63.13,238.93,63.45,238.93,63.88z M238.73,66.05v6.86h-1.07v-6.86H238.73z"/>
	<path class="st2" d="M246.47,66.82l-1.4-0.03c0.38,0.35,0.59,0.94,0.59,1.58c0,0.65-0.25,1.21-0.67,1.55
		c-0.3,0.23-0.78,0.4-1.58,0.58c-0.67,0.14-0.82,0.19-1.04,0.29c-0.26,0.13-0.4,0.29-0.4,0.46c0,0.29,0.17,0.35,1.37,0.46
		c1.33,0.13,1.71,0.2,2.16,0.45c0.58,0.3,0.91,0.88,0.91,1.58c0,1.32-1.19,2.13-3.11,2.13c-1.87,0-3.08-0.78-3.08-1.98
		c0-0.82,0.43-1.33,1.45-1.69c-0.54-0.2-0.74-0.43-0.74-0.8c0-0.46,0.33-0.77,1.23-1.1c-0.94-0.38-1.37-1.01-1.37-1.98
		c0-1.42,1-2.34,2.52-2.34c0.38,0,0.67,0.04,1.07,0.16l2.1-0.07V66.82z M241.14,73.82c0,0.72,0.85,1.2,2.17,1.2
		c1.3,0,2.11-0.46,2.11-1.2c0-0.77-0.77-1.19-2.18-1.19C241.91,72.63,241.14,73.07,241.14,73.82z M241.75,68.28
		c0,0.85,0.59,1.42,1.48,1.42c0.9,0,1.48-0.56,1.48-1.42c0-0.87-0.59-1.5-1.42-1.5C242.37,66.77,241.75,67.38,241.75,68.28z"/>
	<path class="st2" d="M248.3,69.65c0.04,1.66,0.74,2.56,1.98,2.56c0.75,0,1.2-0.29,1.59-1.04l0.94,0.12
		c-0.42,1.19-1.29,1.79-2.55,1.79c-1.84,0-3.01-1.37-3.01-3.53c0-2.23,1.16-3.69,2.95-3.69c1.69,0,2.78,1.37,2.78,3.5
		c0,0.04,0,0.16-0.01,0.29H248.3z M251.93,68.86c-0.12-1.39-0.74-2.14-1.76-2.14c-1,0-1.63,0.74-1.84,2.14H251.93z"/>
	<path class="st2" d="M255.49,66.05c0.1,0.29,0.14,0.56,0.14,1c0.46-0.8,1.16-1.19,2.07-1.19c0.94,0,1.66,0.42,1.97,1.11
		c0.19,0.45,0.22,0.64,0.22,2v3.93h-1.01v-3.88c0-1.01-0.03-1.26-0.17-1.59c-0.2-0.43-0.62-0.68-1.2-0.68
		c-0.61,0-1.16,0.3-1.48,0.81c-0.23,0.36-0.33,0.84-0.33,1.5v3.83h-1.01v-4.53c0-1.63,0-1.69-0.16-2.33H255.49z"/>
	<path class="st2" d="M265.95,68.28c-0.19-1.11-0.61-1.55-1.49-1.55c-1.14,0-1.84,1.04-1.84,2.75s0.69,2.73,1.87,2.73
		c0.93,0,1.39-0.52,1.5-1.66H267c-0.13,1.65-1.01,2.53-2.52,2.53c-1.76,0-2.91-1.42-2.91-3.59c0-2.23,1.13-3.63,2.91-3.63
		c1.45,0,2.31,0.85,2.46,2.42H265.95z"/>
	<path class="st2" d="M269.35,69.65c0.04,1.66,0.74,2.56,1.98,2.56c0.75,0,1.2-0.29,1.59-1.04l0.94,0.12
		c-0.42,1.19-1.29,1.79-2.55,1.79c-1.84,0-3.01-1.37-3.01-3.53c0-2.23,1.16-3.69,2.95-3.69c1.69,0,2.78,1.37,2.78,3.5
		c0,0.04,0,0.16-0.01,0.29H269.35z M272.98,68.86c-0.12-1.39-0.74-2.14-1.76-2.14c-1,0-1.63,0.74-1.84,2.14H272.98z"/>
	<path class="st2" d="M280.37,63.22v3.65c0.51-0.68,1.13-1,1.97-1c0.81,0,1.5,0.33,1.87,0.9c0.27,0.42,0.33,0.82,0.33,2.21v3.93
		h-1.01v-3.88c0-0.97-0.04-1.27-0.19-1.59c-0.23-0.45-0.65-0.68-1.22-0.68c-0.61,0-1.13,0.3-1.43,0.82
		c-0.22,0.36-0.32,0.85-0.32,1.55v3.78h-1.01v-9.69H280.37z"/>
	<path class="st2" d="M287.25,69.65c0.04,1.66,0.74,2.56,1.98,2.56c0.75,0,1.2-0.29,1.59-1.04l0.94,0.12
		c-0.42,1.19-1.29,1.79-2.55,1.79c-1.84,0-3.01-1.37-3.01-3.53c0-2.23,1.16-3.69,2.95-3.69c1.69,0,2.78,1.37,2.78,3.5
		c0,0.04,0,0.16-0.01,0.29H287.25z M290.88,68.86c-0.12-1.39-0.74-2.14-1.76-2.14c-1,0-1.63,0.74-1.84,2.14H290.88z"/>
	<path class="st2" d="M294.71,63.22v9.69h-1.07v-9.69H294.71z"/>
	<path class="st2" d="M296.84,68.09c0-1.19-0.03-1.55-0.13-2.04h1c0.09,0.3,0.1,0.45,0.12,1.01c0.49-0.84,1.07-1.2,1.94-1.2
		c1.63,0,2.72,1.46,2.72,3.63c0,2.16-1.06,3.59-2.65,3.59c-0.87,0-1.48-0.35-1.98-1.13v3.8h-1.01V68.09z M297.84,69.48
		c0,1.62,0.75,2.72,1.85,2.72c1.1,0,1.75-1.01,1.75-2.68c0-1.69-0.68-2.78-1.75-2.78C298.58,66.75,297.84,67.83,297.84,69.48z"/>
	<path class="st2" d="M305.46,63.88c0,0.42-0.3,0.72-0.74,0.72c-0.42,0-0.74-0.3-0.74-0.72c0-0.43,0.32-0.75,0.75-0.75
		C305.16,63.13,305.46,63.45,305.46,63.88z M305.26,66.05v6.86h-1.07v-6.86H305.26z"/>
	<path class="st2" d="M308.18,66.05c0.1,0.29,0.14,0.56,0.14,1c0.46-0.8,1.16-1.19,2.07-1.19c0.94,0,1.66,0.42,1.97,1.11
		c0.19,0.45,0.22,0.64,0.22,2v3.93h-1.01v-3.88c0-1.01-0.03-1.26-0.17-1.59c-0.2-0.43-0.62-0.68-1.2-0.68
		c-0.61,0-1.16,0.3-1.48,0.81c-0.23,0.36-0.33,0.84-0.33,1.5v3.83h-1.01v-4.53c0-1.63,0-1.69-0.16-2.33H308.18z"/>
	<path class="st2" d="M320.28,66.82l-1.4-0.03c0.38,0.35,0.59,0.94,0.59,1.58c0,0.65-0.25,1.21-0.67,1.55
		c-0.3,0.23-0.78,0.4-1.58,0.58c-0.67,0.14-0.82,0.19-1.04,0.29c-0.26,0.13-0.4,0.29-0.4,0.46c0,0.29,0.17,0.35,1.37,0.46
		c1.33,0.13,1.71,0.2,2.16,0.45c0.58,0.3,0.91,0.88,0.91,1.58c0,1.32-1.19,2.13-3.11,2.13c-1.87,0-3.08-0.78-3.08-1.98
		c0-0.82,0.43-1.33,1.45-1.69c-0.54-0.2-0.74-0.43-0.74-0.8c0-0.46,0.33-0.77,1.23-1.1c-0.94-0.38-1.37-1.01-1.37-1.98
		c0-1.42,1-2.34,2.52-2.34c0.38,0,0.67,0.04,1.07,0.16l2.1-0.07V66.82z M314.96,73.82c0,0.72,0.85,1.2,2.17,1.2
		c1.3,0,2.11-0.46,2.11-1.2c0-0.77-0.77-1.19-2.18-1.19C315.73,72.63,314.96,73.07,314.96,73.82z M315.57,68.28
		c0,0.85,0.59,1.42,1.48,1.42c0.9,0,1.48-0.56,1.48-1.42c0-0.87-0.59-1.5-1.42-1.5C316.19,66.77,315.57,67.38,315.57,68.28z"/>
	<path class="st2" d="M326.14,66.05c0.09,0.35,0.13,0.71,0.13,1.06l-0.01,0.42c0.48-1.14,1.03-1.66,1.76-1.66
		c0.26,0,0.54,0.07,0.82,0.22v1.01c-0.46-0.22-0.65-0.27-0.91-0.27c-0.54,0-1.01,0.39-1.32,1.06c-0.22,0.48-0.3,1.06-0.3,1.97v3.07
		h-1.03v-4.5c0-1.58-0.01-1.69-0.12-2.36H326.14z"/>
	<path class="st2" d="M330.68,69.65c0.04,1.66,0.74,2.56,1.98,2.56c0.75,0,1.2-0.29,1.59-1.04l0.94,0.12
		c-0.42,1.19-1.29,1.79-2.55,1.79c-1.84,0-3.01-1.37-3.01-3.53c0-2.23,1.16-3.69,2.95-3.69c1.69,0,2.78,1.37,2.78,3.5
		c0,0.04,0,0.16-0.01,0.29H330.68z M334.31,68.86c-0.12-1.39-0.74-2.14-1.76-2.14c-1,0-1.63,0.74-1.84,2.14H334.31z"/>
	<path class="st2" d="M336.93,67.85c0.15-1.29,1.04-1.98,2.56-1.98c1.11,0,1.94,0.42,2.2,1.13c0.13,0.35,0.16,0.68,0.16,1.53v2.57
		c0,1.11,0.03,1.33,0.19,1.81h-0.97c-0.1-0.32-0.12-0.48-0.16-0.93c-0.4,0.74-1.07,1.1-2.01,1.1c-1.35,0-2.21-0.78-2.21-1.98
		c0-0.95,0.55-1.66,1.59-2.05c0.67-0.25,1.3-0.39,2.58-0.61v-0.29c0-1.03-0.39-1.42-1.4-1.42c-0.88,0-1.37,0.35-1.52,1.11H336.93z
		 M340.85,69.19c-2.31,0.41-3.12,0.9-3.12,1.84c0,0.71,0.54,1.2,1.33,1.2c0.65,0,1.22-0.3,1.52-0.81c0.19-0.33,0.27-0.81,0.27-1.55
		V69.19z"/>
	<path class="st2" d="M345.03,63.22v9.69h-1.07v-9.69H345.03z"/>
	<path class="st2" d="M350.77,68.09c0-1.19-0.03-1.55-0.13-2.04h1c0.09,0.3,0.1,0.45,0.12,1.01c0.49-0.84,1.07-1.2,1.94-1.2
		c1.63,0,2.72,1.46,2.72,3.63c0,2.16-1.06,3.59-2.65,3.59c-0.87,0-1.48-0.35-1.98-1.13v3.8h-1.01V68.09z M351.77,69.48
		c0,1.62,0.75,2.72,1.85,2.72c1.1,0,1.75-1.01,1.75-2.68c0-1.69-0.68-2.78-1.75-2.78C352.51,66.75,351.77,67.83,351.77,69.48z"/>
	<path class="st2" d="M358.75,69.65c0.04,1.66,0.74,2.56,1.98,2.56c0.75,0,1.2-0.29,1.59-1.04l0.94,0.12
		c-0.42,1.19-1.29,1.79-2.55,1.79c-1.84,0-3.01-1.37-3.01-3.53c0-2.23,1.16-3.69,2.95-3.69c1.69,0,2.78,1.37,2.78,3.5
		c0,0.04,0,0.16-0.01,0.29H358.75z M362.38,68.86c-0.12-1.39-0.74-2.14-1.76-2.14c-1,0-1.63,0.74-1.84,2.14H362.38z"/>
	<path class="st2" d="M370.73,69.48c0,2.11-1.23,3.6-2.99,3.6c-1.78,0-2.99-1.48-2.99-3.66c0-2.07,1.24-3.56,2.99-3.56
		C369.5,65.86,370.73,67.34,370.73,69.48z M365.78,69.44c0,1.68,0.77,2.78,1.95,2.78c1.17,0,1.95-1.1,1.95-2.75
		c0-1.63-0.78-2.73-1.95-2.73C366.58,66.73,365.78,67.83,365.78,69.44z"/>
	<path class="st2" d="M372.43,68.09c0-1.19-0.03-1.55-0.13-2.04h1c0.09,0.3,0.1,0.45,0.12,1.01c0.49-0.84,1.07-1.2,1.94-1.2
		c1.63,0,2.72,1.46,2.72,3.63c0,2.16-1.06,3.59-2.65,3.59c-0.87,0-1.48-0.35-1.98-1.13v3.8h-1.01V68.09z M373.43,69.48
		c0,1.62,0.75,2.72,1.85,2.72c1.1,0,1.75-1.01,1.75-2.68c0-1.69-0.68-2.78-1.75-2.78C374.17,66.75,373.43,67.83,373.43,69.48z"/>
	<path class="st2" d="M380.85,63.22v9.69h-1.07v-9.69H380.85z"/>
	<path class="st2" d="M383.61,69.65c0.04,1.66,0.74,2.56,1.98,2.56c0.75,0,1.2-0.29,1.59-1.04l0.94,0.12
		c-0.42,1.19-1.29,1.79-2.55,1.79c-1.84,0-3.01-1.37-3.01-3.53c0-2.23,1.16-3.69,2.95-3.69c1.69,0,2.78,1.37,2.78,3.5
		c0,0.04,0,0.16-0.01,0.29H383.61z M387.24,68.86c-0.12-1.39-0.74-2.14-1.76-2.14c-1,0-1.63,0.74-1.84,2.14H387.24z"/>
</g>
<g>
	<path class="st1" d="M89.88,51.37C89.15,36,76.09,24.14,60.73,24.88C45.36,25.61,33.5,38.66,34.24,54.03
		c0.28,5.86,2.35,11.21,5.66,15.54c0.12,2.26-0.06,4.89-1.21,6.41c-0.93,1.22-1.26,2.29-0.93,3.03c0.33,0.74,1.33,1.16,3.09,1.08
		c3.88-0.19,7.05-1.27,9.2-2.26c0,0,0,0,0,0c1.86-3.8,5.73-6.46,10.2-6.58v-3.64h-7.75c-2,0-3.63-1.63-3.63-3.63v-5.75h-0.63
		c-0.65,0-1.18-0.53-1.18-1.18v-6.23c0-0.65,0.53-1.18,1.18-1.18h0.63v-4.78c0-2,1.63-3.63,3.63-3.63h1.62l-0.03-1.88
		c-1.06-0.09-1.98-0.89-2.17-1.99c-0.23-1.32,0.65-2.57,1.96-2.8c1.32-0.23,2.57,0.65,2.8,1.96c0.2,1.12-0.41,2.19-1.4,2.63
		l0.43,2.07h12.48l0.43-2.07c-0.99-0.44-1.6-1.51-1.4-2.63c0.23-1.32,1.49-2.2,2.8-1.96c1.32,0.23,2.2,1.49,1.96,2.8
		c-0.19,1.1-1.11,1.89-2.17,1.99l-0.03,1.88h1.86c2,0,3.63,1.63,3.63,3.63v4.78h0.63c0.65,0,1.18,0.53,1.18,1.18v6.23
		c0,0.65-0.53,1.18-1.18,1.18h-0.63v5.75c0,2-1.63,3.63-3.63,3.63h-7.75v3.64c4.47,0.12,8.34,2.78,10.2,6.58
		C83.88,73.14,90.43,62.91,89.88,51.37z"/>
	<path class="st1" d="M59.17,51.87c0.02-0.03,0.04-0.07,0.05-0.1c0.01-0.01,0.01-0.03,0.01-0.04c0.01-0.03,0.02-0.06,0.03-0.09
		c0-0.02,0-0.04,0.01-0.06c0-0.03,0.01-0.06,0.01-0.09c0-0.02,0-0.04,0-0.06c0-0.03,0-0.06-0.01-0.09c-0.07-0.41-0.29-1-0.68-1.5
		c-0.44-0.58-1.11-1.07-2.07-1.07c-0.01,0-0.02,0-0.03,0c-0.01,0-0.02,0-0.03,0c-0.96,0-1.62,0.48-2.07,1.07
		c-0.39,0.51-0.61,1.09-0.68,1.5c-0.01,0.03,0,0.06-0.01,0.09c0,0.02,0,0.04,0,0.06c0,0.03,0.01,0.06,0.01,0.09
		c0,0.02,0,0.04,0.01,0.06c0.01,0.03,0.02,0.06,0.03,0.09c0.01,0.01,0.01,0.03,0.01,0.04c0.02,0.04,0.03,0.07,0.05,0.1
		c0,0.01,0.01,0.01,0.01,0.02c0.11,0.16,0.28,0.28,0.48,0.31c0.04,0.01,0.09,0.01,0.13,0.01c0.1,0,0.19-0.02,0.28-0.06
		c0,0,0.01,0,0.01-0.01c0.04-0.02,0.07-0.04,0.11-0.06c0.01,0,0.01-0.01,0.02-0.01c0.03-0.02,0.06-0.05,0.09-0.07
		c0.01-0.01,0.01-0.01,0.02-0.02c0.03-0.03,0.05-0.05,0.07-0.08c0.01-0.01,0.01-0.02,0.02-0.03c0.02-0.03,0.04-0.06,0.05-0.09
		c0.01-0.01,0.01-0.02,0.02-0.03c0.01-0.03,0.02-0.07,0.03-0.1c0-0.01,0.01-0.02,0.01-0.03c0.01-0.03,0.12-0.54,0.43-0.93
		c0.01-0.01,0.02-0.03,0.03-0.04c0.01-0.01,0.01-0.01,0.02-0.02c0.2-0.21,0.48-0.37,0.86-0.38c0.38,0.01,0.66,0.17,0.86,0.38
		c0.01,0.01,0.01,0.01,0.02,0.02c0.01,0.01,0.02,0.03,0.03,0.04c0.32,0.39,0.43,0.9,0.43,0.93c0,0.01,0.01,0.02,0.01,0.03
		c0.01,0.03,0.02,0.07,0.03,0.1c0,0.01,0.01,0.02,0.02,0.03c0.02,0.03,0.03,0.06,0.05,0.09c0.01,0.01,0.01,0.02,0.02,0.03
		c0.02,0.03,0.04,0.06,0.07,0.08c0.01,0.01,0.01,0.01,0.02,0.02c0.03,0.03,0.06,0.05,0.09,0.07c0.01,0,0.01,0.01,0.02,0.01
		c0.03,0.02,0.07,0.04,0.11,0.06c0,0,0.01,0,0.01,0.01c0.09,0.04,0.18,0.06,0.28,0.06c0.04,0,0.09,0,0.13-0.01
		c0.2-0.04,0.37-0.15,0.48-0.31C59.16,51.88,59.16,51.87,59.17,51.87z"/>
	<path class="st1" d="M62.16,62.07c4.99,0,5.68-5.64,5.68-5.64H56.49C56.49,56.43,57.17,62.07,62.16,62.07z"/>
	<path class="st1" d="M70.54,51.84c0.01-0.02,0.03-0.05,0.04-0.07c0.01-0.02,0.02-0.05,0.02-0.07c0.01-0.02,0.01-0.04,0.02-0.06
		c0.01-0.03,0.01-0.06,0.01-0.08c0-0.02,0.01-0.04,0.01-0.06c0-0.03,0-0.06-0.01-0.09c0-0.02,0-0.04,0-0.06c0,0,0,0,0-0.01
		c0,0,0,0,0,0c0-0.01,0-0.02-0.01-0.03c-0.08-0.39-0.27-0.91-0.61-1.38c-0.44-0.62-1.13-1.15-2.13-1.15c-0.01,0-0.02,0-0.04,0
		c-0.01,0-0.02,0-0.04,0c-1,0-1.69,0.53-2.13,1.15c-0.34,0.47-0.53,0.99-0.61,1.38c0,0.01,0,0.02-0.01,0.03c0,0,0,0,0,0
		c0,0,0,0,0,0.01c0,0.02,0,0.04,0,0.06c0,0.03-0.01,0.06-0.01,0.09c0,0.02,0,0.04,0.01,0.06c0,0.03,0,0.06,0.01,0.08
		c0,0.02,0.01,0.04,0.02,0.06c0.01,0.02,0.01,0.05,0.02,0.07c0.01,0.02,0.03,0.05,0.04,0.07c0.01,0.02,0.02,0.04,0.03,0.05
		c0.02,0.03,0.04,0.05,0.07,0.08c0.01,0.01,0.01,0.02,0.02,0.03c0.03,0.03,0.07,0.06,0.1,0.08c0,0,0,0,0,0
		c0.08,0.06,0.18,0.1,0.28,0.12c0.04,0.01,0.09,0.01,0.13,0.01c0.1,0,0.19-0.02,0.28-0.06c0,0,0,0,0,0
		c0.04-0.02,0.08-0.04,0.12-0.06c0,0,0.01,0,0.01-0.01c0.04-0.02,0.07-0.05,0.1-0.08c0,0,0.01-0.01,0.01-0.01
		c0.03-0.03,0.06-0.06,0.08-0.1c0,0,0.01-0.01,0.01-0.01c0.02-0.04,0.04-0.07,0.06-0.11c0,0,0-0.01,0.01-0.01
		c0.02-0.04,0.03-0.09,0.04-0.14c0,0,0,0,0,0c0,0,0,0,0,0c0,0,0-0.01,0-0.01c0-0.01,0-0.01,0-0.02c0.03-0.12,0.15-0.55,0.42-0.88
		c0.02-0.02,0.03-0.04,0.05-0.06c0,0,0,0,0,0c0.2-0.21,0.48-0.38,0.86-0.39c0.38,0.01,0.66,0.18,0.86,0.39c0,0,0,0,0,0
		c0.02,0.02,0.03,0.04,0.05,0.06c0.27,0.34,0.39,0.76,0.42,0.88c0,0.01,0,0.02,0,0.02c0,0,0,0.01,0,0.01c0,0,0,0,0,0c0,0,0,0,0,0
		c0.01,0.05,0.02,0.09,0.04,0.14c0,0,0,0.01,0.01,0.01c0.02,0.04,0.04,0.08,0.06,0.11c0,0,0.01,0.01,0.01,0.01
		c0.02,0.03,0.05,0.07,0.08,0.1c0,0,0.01,0.01,0.01,0.01c0.03,0.03,0.06,0.06,0.1,0.08c0,0,0.01,0,0.01,0.01
		c0.04,0.02,0.08,0.05,0.12,0.06c0,0,0,0,0,0c0.09,0.04,0.18,0.06,0.28,0.06c0.04,0,0.09,0,0.13-0.01c0.1-0.02,0.2-0.06,0.28-0.12
		c0,0,0,0,0,0c0.04-0.03,0.07-0.05,0.1-0.08c0.01-0.01,0.01-0.02,0.02-0.03c0.02-0.03,0.05-0.05,0.07-0.08
		C70.52,51.88,70.53,51.86,70.54,51.84z"/>
</g>
</svg>
